<?xml version="1.0" encoding="UTF-8" standalone="no"?>
<!-- Created with Inkscape (http://www.inkscape.org/) -->

<svg
   width="136.9012mm"
   height="31.014534mm"
   viewBox="0 0 136.9012 31.014534"
   version="1.1"
   id="svg1"
   inkscape:version="1.4.2 (f4327f4, 2025-05-13)"
   sodipodi:docname="home-icon.svg"
   xmlns:inkscape="http://www.inkscape.org/namespaces/inkscape"
   xmlns:sodipodi="http://sodipodi.sourceforge.net/DTD/sodipodi-0.dtd"
   xmlns="http://www.w3.org/2000/svg"
   xmlns:svg="http://www.w3.org/2000/svg">
  <sodipodi:namedview
     id="namedview1"
     pagecolor="#505050"
     bordercolor="#eeeeee"
     borderopacity="1"
     inkscape:showpageshadow="0"
     inkscape:pageopacity="0"
     inkscape:pagecheckerboard="0"
     inkscape:deskcolor="#505050"
     inkscape:document-units="mm"
     inkscape:zoom="1.9901656"
     inkscape:cx="114.81457"
     inkscape:cy="63.060079"
     inkscape:window-width="2256"
     inkscape:window-height="1398"
     inkscape:window-x="-11"
     inkscape:window-y="-11"
     inkscape:window-maximized="1"
     inkscape:current-layer="layer1" />
  <defs
     id="defs1">
    <rect
       x="43.212486"
       y="261.28479"
       width="690.39484"
       height="300.47751"
       id="rect1" />
  </defs>
  <g
     inkscape:label="Layer 1"
     inkscape:groupmode="layer"
     id="layer1"
     transform="translate(-39.754313,-90.911386)">
    <text
       xml:space="preserve"
       transform="scale(0.26458333)"
       id="text1"
       style="font-family:'Segoe MDL2 Assets';-inkscape-font-specification:'Segoe MDL2 Assets';text-align:start;writing-mode:lr-tb;direction:ltr;white-space:pre;shape-inside:url(#rect1);fill:#ffffff" />
    <text
       xml:space="preserve"
       style="font-style:normal;font-variant:normal;font-weight:normal;font-stretch:normal;font-size:3.175px;font-family:'Le Jour Script Personal Use';-inkscape-font-specification:'Le Jour Script Personal Use, Normal';font-variant-ligatures:normal;font-variant-caps:normal;font-variant-numeric:normal;font-variant-east-asian:normal;text-align:start;writing-mode:lr-tb;direction:ltr;text-anchor:start;fill:#ffffff;stroke-width:0.264583"
       x="122.57565"
       y="104.22918"
       id="text2"><tspan
         sodipodi:role="line"
         id="tspan2"
         x="122.57565"
         y="104.22918" /></text>
    <path
       d="m 23.363562,72.365745 c 0.15875,-0.09525 0.333375,-0.1905 0.492125,-0.28575 0.98425,-0.5715 2.047875,-0.809625 3.190875,-0.73025 0.460375,0.03175 0.92075,0.09525 1.381125,0.22225 1.0795,0.301625 2.079625,0.841375 3.127375,1.23825 0.206375,0.07937 0.09525,0.174625 0.03175,0.269875 -0.841375,1.11125 -1.698625,2.206625 -2.69875,3.175 -0.555625,0.53975 -1.127125,1.063625 -1.87325,1.3335 -1.04775,0.396875 -1.539875,0.34925 -2.0955,-0.92075 -0.3175,-0.682625 -0.333375,-1.412875 -0.238125,-2.159 0.01587,-0.127 0,-0.22225 -0.142875,-0.269875 -0.127,-0.04762 -0.254,-0.03175 -0.333375,0.111125 -0.0635,0.127 -0.111125,0.254 -0.127,0.381 -0.07937,0.714375 0,1.412875 0.3175,2.079625 0.60325,1.23825 1.80975,1.666875 3.063875,1.0795 0.60325,-0.28575 1.095375,-0.682625 1.571625,-1.143 1.095375,-1.063625 2.00025,-2.286 2.921,-3.4925 0.127,-0.15875 0.22225,-0.1905 0.428625,-0.127 1.476375,0.492125 2.936875,1.016 4.5085,1.158875 0.206375,0.01587 0.174625,0.111125 0.127,0.254 -0.254,0.79375 -0.508,1.571625 -0.73025,2.38125 -0.174625,0.587375 -0.333375,1.190625 -0.3175,1.825625 0.01588,0.254 0.127,0.460375 0.34925,0.587375 0.269875,0.15875 0.428625,0.0635 0.41275,-0.254 -0.01588,-0.3175 0.04763,-0.635 0.111125,-0.9525 0.238125,-1.11125 0.619125,-2.19075 0.98425,-3.27025 0.15875,-0.492125 0.15875,-0.492125 0.682625,-0.523875 0.111125,0 0.238125,0 0.34925,-0.01587 1.3335,-0.04762 2.587625,-0.381 3.794125,-0.904875 0.0635,-0.01587 0.15875,-0.01587 0.142875,-0.127 -0.03175,-0.07937 -0.09525,-0.111125 -0.15875,-0.127 -0.07937,0 -0.142875,0.01587 -0.206375,0.03175 -0.254,0.07937 -0.492125,0.142875 -0.746125,0.22225 -1.063625,0.3175 -2.12725,0.587375 -3.254375,0.5715 -0.3175,0 -0.3175,0 -0.206375,-0.301625 0.9525,-2.651125 1.952625,-5.30225 2.968625,-7.9375 0.841375,-2.174875 1.762125,-4.333875 2.460625,-6.588125 0.174625,-0.60325 0.34925,-1.2065 0.333375,-1.8415 0,-0.28575 -0.07938,-0.523875 -0.365125,-0.650875 -0.28575,-0.127 -0.508,-0.01588 -0.682625,0.1905 -0.269875,0.269875 -0.53975,0.555625 -0.762,0.85725 -2.2225,2.905125 -4.3815,5.87375 -6.31825,9.001125 -1.17475,1.920875 -2.413,3.81 -3.7465,5.635625 -0.142875,0.22225 -0.269875,0.254 -0.508,0.142875 -0.508,-0.238125 -1.016,-0.460375 -1.524,-0.682625 -0.936625,-0.396875 -1.857375,-0.8255 -2.873375,-0.968375 -1.349375,-0.174625 -2.63525,0 -3.762375,0.841375 -0.127,0.09525 -0.269875,0.1905 -0.365125,0.333375 -0.07938,0.09525 -0.111125,0.1905 -0.01588,0.28575 0.09525,0.09525 0.1905,0.127 0.301625,0.0635 z m 9.255125,-0.01588 c 1.651,-2.286 3.1115,-4.699 4.619625,-7.064375 1.666875,-2.619375 3.4925,-5.11175 5.413375,-7.52475 0.22225,-0.269875 0.4445,-0.555625 0.79375,-0.79375 0.01588,0.53975 -0.09525,0.98425 -0.22225,1.444625 -0.619125,1.984375 -1.397,3.90525 -2.19075,5.842 -1.27,3.14325 -2.619375,6.270625 -3.730625,9.477375 -0.0635,0.174625 -0.15875,0.1905 -0.3175,0.174625 -1.444625,-0.09525 -2.82575,-0.508 -4.175125,-0.968375 -0.47625,-0.15875 -0.492125,-0.15875 -0.1905,-0.587375 z m 20.192978,0.428625 c -0.0635,0 -0.127,0.03175 -0.174625,0.04762 -0.619125,0.301625 -1.23825,0.619125 -1.825625,0.968375 -0.8255,0.508 -1.651,1.016 -2.54,1.444625 -0.4445,0.206375 -0.904875,0.4445 -1.397,0.523875 -0.523875,0.07937 -0.635,-0.03175 -0.587375,-0.53975 0,-0.03175 0,-0.07937 0,-0.111125 0.0635,-0.396875 0.1905,-0.762 0.365125,-1.11125 0.238125,-0.508 0.492125,-1.000125 0.746125,-1.49225 0.127,-0.254 0.22225,-0.508 0.301625,-0.777875 0.09525,-0.365125 -0.04762,-0.650875 -0.3175,-0.889 -0.269875,-0.22225 -0.523875,-0.127 -0.777875,0.01587 -0.28575,0.15875 -0.523875,0.365125 -0.762,0.587375 -0.85725,0.762 -1.666875,1.571625 -2.460625,2.38125 -0.142875,0.15875 -0.28575,0.301625 -0.53975,0.365125 0.01588,-0.22225 0.09525,-0.396875 0.174625,-0.5715 0.206375,-0.460375 0.47625,-0.889 0.762,-1.30175 0.269875,-0.34925 0.1905,-0.66675 -0.15875,-0.889 -0.15875,-0.09525 -0.28575,-0.09525 -0.41275,0.03175 -0.66675,0.650875 -1.0795,1.412875 -1.04775,2.38125 0.01588,0.301625 0.127,0.555625 0.3175,0.777875 0.22225,0.254 0.428625,0.28575 0.6985,0.07937 0.111125,-0.07937 0.22225,-0.15875 0.3175,-0.254 0.777875,-0.777875 1.508125,-1.61925 2.3495,-2.333625 0.34925,-0.301625 0.682625,-0.587375 1.2065,-0.762 -0.206375,0.508 -0.47625,0.904875 -0.714375,1.30175 -0.4445,0.762 -0.635,1.571625 -0.555625,2.428875 0.0635,0.73025 0.619125,1.381125 1.55575,1.04775 0.523875,-0.1905 1.031875,-0.41275 1.508125,-0.682625 0.92075,-0.492125 1.778,-1.04775 2.667,-1.571625 0.460375,-0.254 0.904875,-0.508 1.349375,-0.762 0.0635,-0.04762 0.174625,-0.0635 0.142875,-0.1905 -0.03175,-0.07937 -0.09525,-0.142875 -0.1905,-0.142875 z m 0.873106,2.492375 c 0.03175,0.333375 0.07937,0.66675 0.238125,0.968375 0.53975,1.016 1.61925,1.23825 2.524125,0.85725 1.825625,-0.777875 5.254625,-3.77825 7.223124,-4.016375 -0.01588,-0.0635 -0.01588,-0.09525 -0.03175,-0.111125 -0.539749,-0.60325 -5.413374,2.746375 -7.016749,3.52425 -0.41275,0.206375 -0.8255,0.381 -1.30175,0.381 -0.238125,-0.01588 -0.396875,-0.111125 -0.492125,-0.333375 -0.09525,-0.22225 -0.142875,-0.460375 -0.142875,-0.714375 -0.01588,-0.5715 0.09525,-1.11125 0.3175,-1.651 0.174625,-0.4445 0.4445,-0.841375 0.682625,-1.254125 0.174625,-0.333375 0.142875,-0.4445 -0.1905,-0.60325 -0.09525,-0.04762 -0.1905,-0.111125 -0.28575,-0.07937 -0.174625,0.0635 -0.269875,-0.03175 -0.396875,-0.111125 -0.47625,-0.269875 -0.9525,-0.333375 -1.42875,-0.03175 -1.143,0.714375 -1.666875,1.793875 -1.635125,3.1115 0,0.4445 0.508,0.6985 0.92075,0.508 0.15875,-0.07937 0.301625,-0.1905 0.41275,-0.3175 0.174625,-0.15875 0.34925,-0.333375 0.53975,-0.523875 0.0635,0.15875 0.04762,0.28575 0.0635,0.396875 z m -0.889,-0.1905 c -0.111125,0.09525 -0.238125,0.174625 -0.41275,0.301625 0,-0.34925 0.0635,-0.60325 0.15875,-0.8255 0.28575,-0.73025 0.6985,-1.349375 1.30175,-1.857375 0.111125,-0.09525 0.254,-0.15875 0.381,-0.238125 0.07937,-0.04762 0.1905,-0.0635 0.254,0.04762 0.0635,0.09525 0.127,0.174625 0.04762,0.301625 -0.508,0.809625 -1.000125,1.635125 -1.730375,2.270125 z m 14.605,-9.17575 c 1.0795,-1.825625 2.206625,-3.603625 3.3655,-5.381625 0.1905,-0.28575 0.41275,-0.5715 0.555625,-0.904875 0.09525,-0.22225 0,-0.34925 -0.238125,-0.333375 -0.127,0 -0.206375,0.07937 -0.269875,0.174625 -0.238125,0.28575 -0.47625,0.587375 -0.714375,0.889 -0.619125,0.809625 -1.143,1.68275 -1.698625,2.54 -0.873125,1.3335 -1.68275,2.714625 -2.460625,4.111625 -1.031875,1.8415 -1.9685,3.730625 -2.778125,5.699125 -0.508,1.23825 -1.000125,2.4765 -1.42875,3.7465 -0.09525,0.3175 -0.269875,0.555625 -0.523875,0.777875 -0.460375,0.381 -0.873125,0.809625 -1.2065,1.3335 -0.254,0.41275 -0.508,0.85725 -0.53975,1.349375 -0.04762,0.6985 0.3175,1.23825 1.0795,1.3335 0.60325,0.0635 1.143,-0.07937 1.666875,-0.365125 0.8255,-0.4445 1.4605,-1.11125 2.016125,-1.857375 0.98425,-1.3335 1.74625,-2.794 2.3495,-4.333875 0.0635,-0.174625 0.142875,-0.28575 0.333375,-0.34925 0.936625,-0.34925 1.905,-0.650875 2.873375,-0.904875 0.365125,-0.09525 0.73025,-0.1905 1.11125,-0.301625 -0.09525,-0.15875 -0.238125,-0.174625 -0.365125,-0.174625 -0.111125,0 -0.22225,0.01588 -0.333375,0.03175 -0.714375,0.15875 -1.42875,0.34925 -2.143125,0.53975 -0.396875,0.111125 -0.777875,0.22225 -1.190625,0.333375 -0.03175,-0.15875 0.03175,-0.269875 0.0635,-0.396875 0.0635,-0.381 0.07937,-0.762 -0.0635,-1.127125 -0.07937,-0.22225 -0.206375,-0.396875 -0.428625,-0.492125 -0.4445,-0.174625 -0.889,-0.174625 -1.30175,0.09525 -0.381,0.254 -0.73025,0.555625 -1.031875,0.889 -0.07937,0.07937 -0.142875,0.1905 -0.3175,0.22225 0.142875,-0.365125 0.28575,-0.6985 0.428625,-1.031875 0.968375,-2.079625 2.032,-4.1275 3.190875,-6.111875 z m -1.905,9.318625 c -0.587375,1.42875 -1.30175,2.809875 -2.270125,4.016375 -0.523875,0.650875 -1.127125,1.2065 -1.905,1.55575 -0.22225,0.09525 -0.4445,0.174625 -0.6985,0.174625 -0.238125,-0.01587 -0.396875,-0.111125 -0.508,-0.3175 -0.142875,-0.28575 -0.1905,-0.587375 -0.09525,-0.889 0.238125,-0.809625 0.746125,-1.42875 1.317625,-2.016125 0.09525,-0.07937 0.174625,-0.04763 0.269875,-0.01588 0.34925,0.0635 0.428625,0.03175 0.5715,-0.28575 0.03175,-0.07937 0.07938,-0.142875 0.09525,-0.206375 0.03175,-0.381 0.3175,-0.587375 0.60325,-0.777875 0.79375,-0.555625 1.61925,-1.016 2.4765,-1.444625 0.0635,-0.03175 0.111125,-0.0635 0.174625,-0.03175 0.0635,0.07937 0,0.15875 -0.03175,0.238125 z m -0.66675,-2.31775 c 0.28575,-0.269875 0.587375,-0.492125 0.92075,-0.66675 0.15875,-0.07937 0.238125,-0.03175 0.269875,0.111125 0.04763,0.206375 0.0635,0.396875 0.0635,0.587375 -0.01587,0.381 -0.111125,0.762 -0.1905,1.127125 -0.04762,0.206375 -0.174625,0.3175 -0.34925,0.396875 -0.79375,0.34925 -1.55575,0.777875 -2.301875,1.222375 -0.15875,0.09525 -0.28575,0.238125 -0.460375,0.269875 -0.04762,-0.09525 -0.01588,-0.15875 0.01588,-0.22225 0.5715,-1.016 1.17475,-2.016125 2.032,-2.82575 z m 8.715389,3.52425 c 1.49225,-0.555625 4.572,-2.905125 7.540625,-3.302 -0.09525,-0.206375 -0.238125,-0.206375 -0.365125,-0.206375 -2.587625,0.28575 -5.984875,2.524125 -6.985,3.000375 -0.4445,0.206375 -0.904875,0.34925 -1.412875,0.396875 -0.365125,0.03175 -0.6985,-0.04762 -0.9525,-0.34925 -0.60325,-0.777875 -0.650875,-1.5875 -0.254,-2.460625 0.07937,-0.174625 0.174625,-0.269875 0.396875,-0.206375 0.301625,0.07937 0.60325,0.0635 0.904875,-0.03175 0.619125,-0.206375 1.127125,-0.587375 1.5875,-1.031875 0.07937,-0.07937 0.127,-0.15875 0.174625,-0.254 0.127,-0.254 0.07937,-0.508 -0.15875,-0.682625 -0.381,-0.269875 -0.79375,-0.428625 -1.254125,-0.28575 -1.190625,0.34925 -2.0955,1.04775 -2.54,2.238375 -0.269875,0.73025 -0.1905,1.42875 0.1905,2.06375 0.777875,1.27 1.698625,1.651 3.127375,1.11125 z m -0.03175,-4.81012 c -0.1905,0.587375 -1.222375,1.23825 -1.857375,1.17475 0.254,-0.555625 1.285875,-1.2065 1.857375,-1.17475 z m 14.477979,1.42875 c -0.73025,0.365125 -1.412875,0.79375 -2.032,1.3335 -0.8255,0.6985 -1.61925,1.4605 -2.413,2.206625 -0.619125,0.60325 -1.23825,1.2065 -1.9685,1.68275 -0.28575,0.1905 -0.60325,0.333375 -0.936625,0.41275 -0.301624,0.04763 -0.365124,0.01588 -0.492124,-0.254 -0.111125,-0.254 -0.127,-0.523875 -0.127,-0.79375 -0.03175,-0.762 0.1905,-1.476375 0.41275,-2.174875 0.396874,-1.2065 0.904874,-2.3495 1.476374,-3.46075 0.174625,-0.34925 0.365125,-0.682625 0.53975,-1.031875 h 0.01587 c 4.143375,-4.6355 8.270875,-11.414125 8.366125,-12.557125 0.09525,-0.254 -0.238125,-0.809625 -0.508,-0.587375 -0.127,0.111125 -0.269875,0.22225 -0.381,0.34925 -0.762,0.841375 -1.508125,1.698625 -2.2225,2.587625 -0.841375,1.031875 -1.603375,2.12725 -2.333625,3.254375 -0.73025,1.158875 -1.444625,2.301875 -2.12725,3.4925 -0.777875,1.3335 -1.508125,2.682875 -2.19075,4.064 -0.460375,0.889 -0.888999,1.793875 -1.222374,2.746375 -0.3175,0.92075 -0.53975,1.8415 -0.53975,2.82575 0,0.381 0.07937,0.73025 0.22225,1.063625 0.254,0.635 0.841375,0.92075 1.508124,0.746125 0.127,-0.03175 0.254,-0.09525 0.381,-0.142875 0.396875,-0.1905 0.73025,-0.460375 1.063625,-0.73025 1.000125,-0.809625 1.905,-1.698625 2.82575,-2.587625 0.4445,-0.41275 0.889,-0.85725 1.349375,-1.27 0.53975,-0.47625 1.143,-0.85725 1.857375,-1.17475 -0.22225,-0.142875 -0.381,-0.07937 -0.523875,0 z m -4.365625,-4.238625 c 1.016,-1.793875 2.0955,-3.540125 3.2385,-5.2705 0.904875,-1.349375 1.93675,-2.619375 2.936875,-3.90525 0.1905,-0.238125 0.381,-0.47625 0.5715,-0.714375 -0.365125,0.79375 -1.11125,2.111375 -2.270125,3.937 -1.571625,2.4765 -3.33375,4.8895 -4.968875,6.842125 0.15875,-0.301625 0.333375,-0.60325 0.492125,-0.889 z m 11.414129,4.238625 c -0.73025,0.365125 -1.412875,0.79375 -2.032,1.3335 -0.8255,0.6985 -1.61925,1.4605 -2.413,2.206625 -0.619125,0.60325 -1.23825,1.2065 -1.9685,1.68275 -0.28575,0.1905 -0.60325,0.333375 -0.936625,0.41275 -0.301625,0.04763 -0.365125,0.01588 -0.492125,-0.254 -0.111125,-0.254 -0.127,-0.523875 -0.127,-0.79375 -0.03175,-0.762 0.1905,-1.476375 0.41275,-2.174875 0.396875,-1.2065 0.904875,-2.3495 1.476375,-3.46075 0.174625,-0.34925 0.365125,-0.682625 0.53975,-1.031875 h 0.01588 c 4.143375,-4.6355 8.270875,-11.414125 8.366125,-12.557125 0.09525,-0.254 -0.238125,-0.809625 -0.508,-0.587375 -0.127,0.111125 -0.269875,0.22225 -0.381,0.34925 -0.762,0.841375 -1.508125,1.698625 -2.2225,2.587625 -0.841375,1.031875 -1.603375,2.12725 -2.333625,3.254375 -0.73025,1.158875 -1.444625,2.301875 -2.12725,3.4925 -0.777875,1.3335 -1.508125,2.682875 -2.19075,4.064 -0.460375,0.889 -0.889,1.793875 -1.222375,2.746375 -0.3175,0.92075 -0.53975,1.8415 -0.53975,2.82575 0,0.381 0.07937,0.73025 0.22225,1.063625 0.254,0.635 0.841375,0.92075 1.508125,0.746125 0.127,-0.03175 0.254,-0.09525 0.381,-0.142875 0.396875,-0.1905 0.73025,-0.460375 1.063625,-0.73025 1.000125,-0.809625 1.905,-1.698625 2.82575,-2.587625 0.4445,-0.41275 0.889,-0.85725 1.349375,-1.27 0.53975,-0.47625 1.143,-0.85725 1.857375,-1.17475 -0.22225,-0.142875 -0.381,-0.07937 -0.523875,0 z m -4.365625,-4.238625 c 1.016,-1.793875 2.0955,-3.540125 3.2385,-5.2705 0.904875,-1.349375 1.93675,-2.619375 2.936875,-3.90525 0.1905,-0.238125 0.381,-0.47625 0.5715,-0.714375 -0.365125,0.79375 -1.11125,2.111375 -2.270125,3.937 -1.571625,2.4765 -3.33375,4.8895 -4.968875,6.842125 0.15875,-0.301625 0.333375,-0.60325 0.492125,-0.889 z m 5.381633,6.461125 c 0.03175,0.333375 0.07937,0.66675 0.238125,0.968375 0.53975,1.016 1.61925,1.23825 2.524125,0.85725 1.825629,-0.777875 5.254629,-3.77825 7.223129,-4.016375 -0.0159,-0.0635 -0.0159,-0.09525 -0.0318,-0.111125 -0.53975,-0.60325 -5.41338,2.746375 -7.016754,3.52425 -0.41275,0.206375 -0.8255,0.381 -1.30175,0.381 -0.238125,-0.01588 -0.396875,-0.111125 -0.492125,-0.333375 -0.09525,-0.22225 -0.142875,-0.460375 -0.142875,-0.714375 -0.01588,-0.5715 0.09525,-1.11125 0.3175,-1.651 0.174625,-0.4445 0.4445,-0.841375 0.682625,-1.254125 0.174625,-0.333375 0.142875,-0.4445 -0.1905,-0.60325 -0.09525,-0.04762 -0.1905,-0.111125 -0.28575,-0.07937 -0.174625,0.0635 -0.269875,-0.03175 -0.396875,-0.111125 -0.47625,-0.269875 -0.9525,-0.333375 -1.42875,-0.03175 -1.143,0.714375 -1.666875,1.793875 -1.635125,3.1115 0,0.4445 0.508,0.6985 0.92075,0.508 0.15875,-0.07937 0.301625,-0.1905 0.41275,-0.3175 0.174625,-0.15875 0.34925,-0.333375 0.53975,-0.523875 0.0635,0.15875 0.04762,0.28575 0.0635,0.396875 z m -0.889,-0.1905 c -0.111125,0.09525 -0.238125,0.174625 -0.41275,0.301625 0,-0.34925 0.0635,-0.60325 0.15875,-0.8255 0.28575,-0.73025 0.6985,-1.349375 1.30175,-1.857375 0.111125,-0.09525 0.254,-0.15875 0.381,-0.238125 0.07938,-0.04762 0.1905,-0.0635 0.254,0.04762 0.0635,0.09525 0.127,0.174625 0.04762,0.301625 -0.508,0.809625 -1.000125,1.635125 -1.730375,2.270125 z m 18.716619,1.5875 c -0.49212,0.07938 -0.93662,0.28575 -1.28587,0.650875 -0.34925,0.365125 -0.3175,0.762 0.0952,1.0795 0.1905,0.142875 0.41275,0.238125 0.635,0.301625 0.55562,0.142875 1.09537,0.111125 1.63512,-0.03175 0.98425,-0.238125 1.82563,-0.762 2.61938,-1.36525 0.127,-0.09525 0.254,-0.127 0.41275,-0.07937 0.41275,0.111125 0.8255,0.22225 1.23825,0.333375 1.61925,0.396875 3.2385,0.746125 4.92125,0.60325 0.87312,-0.0635 1.74625,-0.238125 2.6035,-0.428625 1.95262,-0.428625 3.63537,-1.349375 5.04825,-2.76225 0.49212,-0.492125 0.92075,-1.063625 1.42875,-1.539875 0.0476,-0.04763 0.15875,-0.111125 0.0794,-0.1905 -0.0635,-0.09525 -0.1905,-0.09525 -0.28575,-0.01588 -0.11112,0.07937 -0.20637,0.15875 -0.30162,0.254 -0.60325,0.60325 -1.27,1.11125 -1.92088,1.635125 -1.30175,1.031875 -2.76225,1.778 -4.3815,2.159 -1.34937,0.333375 -2.7305,0.619125 -4.14337,0.460375 -1.09538,-0.111125 -2.159,-0.3175 -3.20675,-0.60325 -0.30163,-0.07938 -0.58738,-0.15875 -0.93663,-0.254 0.85725,-0.682625 1.5875,-1.42875 2.25425,-2.206625 1.88913,-2.2225 3.4925,-4.651375 4.8895,-7.20725 1.15888,-2.143125 2.42888,-4.22275 3.937,-6.143625 0.4445,-0.5715 0.92075,-1.127125 1.41288,-1.730375 0.0159,0.15875 -0.0635,0.22225 -0.11113,0.3175 -0.23812,0.492125 -0.508,0.98425 -0.635,1.539875 -0.0318,0.0635 -0.0635,0.15875 0.0476,0.1905 0.0952,0.03175 0.17462,0.03175 0.22225,-0.0635 0.0952,-0.1905 0.20637,-0.365125 0.30162,-0.53975 0.5715,-1.095375 1.15888,-2.174875 1.93675,-3.127375 0.0794,-0.07937 0.254,-0.15875 0.15875,-0.301625 -0.0794,-0.127 -0.254,-0.127 -0.39687,-0.127 -0.1905,0 -0.30163,0.111125 -0.41275,0.238125 -0.254,0.269875 -0.55563,0.508 -0.8255,0.746125 -0.28575,0.238125 -0.55563,0.508 -0.80963,0.777875 -1.905,2.111375 -3.46075,4.47675 -4.87362,6.95325 -1.34938,2.3495 -2.77813,4.651375 -4.5085,6.746875 -1.00013,1.23825 -2.00025,2.4765 -3.20675,3.540125 -0.17463,0.15875 -0.33338,0.206375 -0.5715,0.174625 -1.016,-0.174625 -2.04788,-0.174625 -3.06388,0.01587 z m 2.77813,0.28575 c 0.0476,0.01587 0.0953,0.03175 0.1905,0.04762 -0.84138,0.619125 -1.66688,1.127125 -2.63525,1.349375 -0.26988,0.04762 -0.53975,0.09525 -0.80963,-0.03175 -0.34925,-0.174625 -0.41275,-0.47625 -0.14287,-0.777875 0.26987,-0.28575 0.61912,-0.4445 1.00012,-0.523875 0.79375,-0.127 1.60338,-0.15875 2.39713,-0.0635 z m 21.33599,-6.175375 c -0.26988,-0.15875 -0.46038,-0.174625 -0.71438,0.01588 -0.74612,0.587375 -1.41287,1.254125 -2.032,1.9685 -0.41275,0.492125 -0.73025,1.04775 -1.143,1.539875 -0.30162,0.34925 -0.5715,0.6985 -0.92075,1.000125 -0.20637,0.15875 -0.254,0.127 -0.30162,-0.127 -0.0159,-0.1905 -0.0159,-0.365125 0.0159,-0.555625 0.11113,-0.650875 0.3175,-1.254125 0.61913,-1.8415 0.1905,-0.365125 0.41275,-0.6985 0.60325,-1.04775 0.15875,-0.269875 0.0952,-0.381 -0.20638,-0.428625 -0.254,-0.03175 -0.47625,0.03175 -0.66675,0.238125 -0.6985,0.762 -1.04775,1.666875 -1.19062,2.682875 -0.0476,0.254 -0.0317,0.508 0.0159,0.762 0.0952,0.47625 0.41275,0.746125 0.90488,0.762 0.254,0.01588 0.47625,-0.0635 0.68262,-0.238125 0.254,-0.22225 0.47625,-0.492125 0.73025,-0.777875 0.0159,0.07937 0.0317,0.09525 0.0159,0.127 -0.0318,0.09525 -0.0635,0.174625 -0.0953,0.269875 -0.36513,0.92075 -0.61913,1.87325 -0.66675,2.8575 -0.0476,0.714375 0.0476,1.397 0.381,2.032 0.15875,0.28575 0.34925,0.523875 0.65087,0.635 0.0635,0.03175 0.14288,0.09525 0.1905,0.01587 0.0635,-0.07937 0,-0.142875 -0.0635,-0.1905 -0.22225,-0.15875 -0.28575,-0.41275 -0.36512,-0.66675 -0.22225,-0.746125 -0.20638,-1.49225 -0.0635,-2.25425 0.26987,-1.349375 0.79375,-2.587625 1.47637,-3.762375 0.58738,-1.016 1.27,-1.952625 2.14313,-2.746375 0.127,-0.111125 0.14287,-0.174625 0,-0.269875 z m 11.04902,2.00025 c -0.0635,0 -0.127,0.03175 -0.17463,0.04762 -0.61912,0.301625 -1.23825,0.619125 -1.82562,0.968375 -0.8255,0.508 -1.651,1.016 -2.54,1.444625 -0.4445,0.206375 -0.90488,0.4445 -1.397,0.523875 -0.52388,0.07937 -0.635,-0.03175 -0.58738,-0.53975 0,-0.03175 0,-0.07937 0,-0.111125 0.0635,-0.396875 0.1905,-0.762 0.36513,-1.11125 0.23812,-0.508 0.49212,-1.000125 0.74612,-1.49225 0.127,-0.254 0.22225,-0.508 0.30163,-0.777875 0.0953,-0.365125 -0.0476,-0.650875 -0.3175,-0.889 -0.26988,-0.22225 -0.52388,-0.127 -0.77788,0.01587 -0.28575,0.15875 -0.52387,0.365125 -0.762,0.587375 -0.85725,0.762 -1.66687,1.571625 -2.46062,2.38125 -0.14288,0.15875 -0.28575,0.301625 -0.53975,0.365125 0.0159,-0.22225 0.0952,-0.396875 0.17462,-0.5715 0.20638,-0.460375 0.47625,-0.889 0.762,-1.30175 0.26988,-0.34925 0.1905,-0.66675 -0.15875,-0.889 -0.15875,-0.09525 -0.28575,-0.09525 -0.41275,0.03175 -0.66675,0.650875 -1.0795,1.412875 -1.04775,2.38125 0.0159,0.301625 0.127,0.555625 0.3175,0.777875 0.22225,0.254 0.42863,0.28575 0.6985,0.07937 0.11113,-0.07937 0.22225,-0.15875 0.3175,-0.254 0.77788,-0.777875 1.50813,-1.61925 2.3495,-2.333625 0.34925,-0.301625 0.68263,-0.587375 1.2065,-0.762 -0.20637,0.508 -0.47625,0.904875 -0.71437,1.30175 -0.4445,0.762 -0.635,1.571625 -0.55563,2.428875 0.0635,0.73025 0.61913,1.381125 1.55575,1.04775 0.52388,-0.1905 1.03188,-0.41275 1.50813,-0.682625 0.92075,-0.492125 1.778,-1.04775 2.667,-1.571625 0.46037,-0.254 0.90487,-0.508 1.34937,-0.762 0.0635,-0.04762 0.17463,-0.0635 0.14288,-0.1905 -0.0318,-0.07937 -0.0952,-0.142875 -0.1905,-0.142875 z m 0.8731,2.492375 c 0.0318,0.333375 0.0794,0.66675 0.23813,0.968375 0.53975,1.016 1.61925,1.23825 2.52412,0.85725 1.82563,-0.777875 5.25463,-3.77825 7.22313,-4.016375 -0.0159,-0.0635 -0.0159,-0.09525 -0.0318,-0.111125 -0.53975,-0.60325 -5.41338,2.746375 -7.01675,3.52425 -0.41275,0.206375 -0.8255,0.381 -1.30175,0.381 -0.23813,-0.01588 -0.39688,-0.111125 -0.49213,-0.333375 -0.0952,-0.22225 -0.14287,-0.460375 -0.14287,-0.714375 -0.0159,-0.5715 0.0952,-1.11125 0.3175,-1.651 0.17462,-0.4445 0.4445,-0.841375 0.68262,-1.254125 0.17463,-0.333375 0.14288,-0.4445 -0.1905,-0.60325 -0.0952,-0.04762 -0.1905,-0.111125 -0.28575,-0.07937 -0.17462,0.0635 -0.26987,-0.03175 -0.39687,-0.111125 -0.47625,-0.269875 -0.9525,-0.333375 -1.42875,-0.03175 -1.143,0.714375 -1.66688,1.793875 -1.63513,3.1115 0,0.4445 0.508,0.6985 0.92075,0.508 0.15875,-0.07937 0.30163,-0.1905 0.41275,-0.3175 0.17463,-0.15875 0.34925,-0.333375 0.53975,-0.523875 0.0635,0.15875 0.0476,0.28575 0.0635,0.396875 z m -0.889,-0.1905 c -0.11112,0.09525 -0.23812,0.174625 -0.41275,0.301625 0,-0.34925 0.0635,-0.60325 0.15875,-0.8255 0.28575,-0.73025 0.6985,-1.349375 1.30175,-1.857375 0.11113,-0.09525 0.254,-0.15875 0.381,-0.238125 0.0794,-0.04762 0.1905,-0.0635 0.254,0.04762 0.0635,0.09525 0.127,0.174625 0.0476,0.301625 -0.508,0.809625 -1.00013,1.635125 -1.73038,2.270125 z"
       id="text3"
       style="font-size:25.4px;font-family:'Le Jour Script Personal Use';-inkscape-font-specification:'Le Jour Script Personal Use, Normal';white-space:pre;inline-size:165.122;fill:#ffffff;stroke-width:0.264583"
       transform="translate(16.751119,34.299911)"
       aria-label="Anabella Luna" />
    <text
       xml:space="preserve"
       style="font-style:normal;font-variant:normal;font-weight:normal;font-stretch:normal;font-size:25.4px;font-family:'Segoe MDL2 Assets';-inkscape-font-specification:'Segoe MDL2 Assets, Normal';font-variant-ligatures:normal;font-variant-caps:normal;font-variant-numeric:normal;font-variant-east-asian:normal;text-align:start;writing-mode:lr-tb;direction:ltr;text-anchor:start;fill:#ffffff;stroke-width:0.264583"
       x="75.512978"
       y="180.27394"
       id="text4"><tspan
         sodipodi:role="line"
         id="tspan4"
         x="75.512978"
         y="180.27394" /></text>
    <path
       d="m 66.523572,117.55836 h 0.553431 v 4.27651 h -0.471674 l -2.63194,-3.3426 v 3.3426 h -0.556575 v -4.27651 h 0.468529 l 2.635085,3.35203 h 0.0031 z m 1.716893,0 h 2.842621 v 0.50626 H 68.79704 v 1.35528 h 1.987319 v 0.47796 H 68.79704 v 1.43389 h 2.314346 v 0.50312 h -2.870921 z m 5.60034,4.35827 q -0.61632,0 -1.132017,-0.29559 -0.512552,-0.29872 -0.814423,-0.80813 -0.298727,-0.51255 -0.298727,-1.11944 0,-0.61318 0.298727,-1.12258 0.301871,-0.51256 0.814423,-0.80814 0.515697,-0.29872 1.132017,-0.29872 0.459096,0 0.886747,0.17294 0.427651,0.17295 0.735811,0.49998 0.30816,0.32702 0.418218,0.7704 h -0.566009 q -0.179236,-0.43709 -0.575442,-0.68236 -0.393061,-0.24841 -0.911903,-0.24841 -0.46224,0 -0.845868,0.22326 -0.383628,0.22011 -0.606887,0.61317 -0.223259,0.38992 -0.223259,0.88046 0,0.49369 0.223259,0.8836 0.223259,0.38992 0.606887,0.61003 0.383628,0.21697 0.845868,0.21697 0.46853,0 0.811279,-0.17294 0.34275,-0.17295 0.540853,-0.46853 0.201247,-0.29873 0.260993,-0.67607 H 73.80936 v -0.50312 h 2.210578 q 0.0031,0.65406 -0.257848,1.18548 -0.257848,0.53142 -0.751534,0.83958 -0.493685,0.30816 -1.169751,0.30816 z m 4.974587,0.003 q -0.619465,0 -1.144595,-0.29873 -0.52513,-0.29872 -0.83329,-0.80813 -0.305016,-0.51255 -0.305016,-1.11944 0,-0.61318 0.305016,-1.12258 0.30816,-0.51256 0.830146,-0.80814 0.52513,-0.29872 1.147739,-0.29872 0.62261,0 1.14774,0.29872 0.52513,0.29558 0.83329,0.80814 0.308161,0.5094 0.308161,1.12258 0,0.60689 -0.308161,1.11944 -0.30816,0.50941 -0.83329,0.80813 -0.52513,0.29873 -1.14774,0.29873 z m 0,-0.5157 q 0.474819,0 0.871025,-0.22325 0.396206,-0.22641 0.628898,-0.61633 0.232693,-0.39306 0.232693,-0.87102 0,-0.47796 -0.232693,-0.87102 -0.232692,-0.39307 -0.628898,-0.61947 -0.396206,-0.2264 -0.871025,-0.2264 -0.471673,0 -0.867879,0.2264 -0.396206,0.2264 -0.628899,0.61947 -0.229548,0.39306 -0.229548,0.87102 0,0.47796 0.229548,0.87102 0.232693,0.38992 0.628899,0.61633 0.396206,0.22325 0.867879,0.22325 z m 5.028042,0.5157 q -0.61632,0 -1.128873,-0.29558 -0.509407,-0.29873 -0.80499,-0.80814 -0.295582,-0.51255 -0.295582,-1.12258 0,-0.61318 0.295582,-1.12258 0.295583,-0.51256 0.80499,-0.80814 0.512553,-0.29872 1.128873,-0.29872 0.465385,0 0.883602,0.17609 0.418218,0.17609 0.716945,0.52513 0.298726,0.34904 0.402495,0.84587 h -0.566009 q -0.141502,-0.50627 -0.531419,-0.77041 -0.386773,-0.26413 -0.921336,-0.26413 -0.462241,0 -0.842724,0.22011 -0.377339,0.22012 -0.597454,0.61318 -0.21697,0.39306 -0.21697,0.8836 0,0.49369 0.21697,0.8836 0.220115,0.38992 0.597454,0.61003 0.380483,0.21697 0.842724,0.21697 0.531419,0 0.918191,-0.26413 0.389917,-0.26414 0.53142,-0.76726 h 0.569153 q -0.103769,0.49997 -0.402495,0.84901 -0.295583,0.34904 -0.7138,0.52513 -0.418218,0.17295 -0.886747,0.17295 z m 2.842621,-4.36141 h 0.556576 v 4.27651 h -0.556576 z m 3.675912,4.36141 q -0.619465,0 -1.144595,-0.29873 -0.52513,-0.29872 -0.833291,-0.80813 -0.305015,-0.51255 -0.305015,-1.11944 0,-0.61318 0.305015,-1.12258 0.308161,-0.51256 0.830146,-0.80814 0.525131,-0.29872 1.14774,-0.29872 0.622609,0 1.14774,0.29872 0.52513,0.29558 0.83329,0.80814 0.30816,0.5094 0.30816,1.12258 0,0.60689 -0.30816,1.11944 -0.30816,0.50941 -0.83329,0.80813 -0.525131,0.29873 -1.14774,0.29873 z m 0,-0.5157 q 0.474818,0 0.871024,-0.22325 0.396206,-0.22641 0.628899,-0.61633 0.232692,-0.39306 0.232692,-0.87102 0,-0.47796 -0.232692,-0.87102 -0.232693,-0.39307 -0.628899,-0.61947 -0.396206,-0.2264 -0.871024,-0.2264 -0.471674,0 -0.86788,0.2264 -0.396206,0.2264 -0.628898,0.61947 -0.229548,0.39306 -0.229548,0.87102 0,0.47796 0.229548,0.87102 0.232692,0.38992 0.628898,0.61633 0.396206,0.22325 0.86788,0.22325 z m 4.45889,0.52199 q -0.550287,0 -0.93077,-0.18867 -0.377339,-0.19181 -0.562864,-0.49683 -0.185525,-0.30502 -0.185525,-0.64462 h 0.556575 q 0,0.22955 0.135213,0.42451 0.135213,0.19495 0.389917,0.3113 0.254704,0.11635 0.594309,0.11635 0.550286,0 0.83958,-0.20125 0.292437,-0.20125 0.292437,-0.59431 0,-0.34904 -0.289293,-0.52199 -0.289293,-0.17609 -0.827001,-0.25784 -0.440229,-0.0723 -0.779834,-0.19496 -0.339606,-0.12578 -0.572298,-0.3742 -0.229548,-0.24841 -0.229548,-0.65091 0,-0.33646 0.160369,-0.60374 0.163514,-0.26728 0.509408,-0.42451 0.345894,-0.16036 0.880458,-0.16036 0.49054,0 0.836435,0.15408 0.349038,0.15408 0.52513,0.42765 0.179236,0.27357 0.179236,0.63518 h -0.55972 q 0,-0.21382 -0.116346,-0.37734 -0.113202,-0.16665 -0.336461,-0.25784 -0.220114,-0.0912 -0.534563,-0.0912 -0.534564,0 -0.760967,0.1981 -0.226404,0.1981 -0.226404,0.50312 0,0.32388 0.295582,0.49368 0.295583,0.16981 0.90247,0.25156 0.663488,0.10692 1.084849,0.38363 0.421362,0.27672 0.421362,0.86788 0,0.39621 -0.204392,0.6855 -0.201247,0.28615 -0.584875,0.43708 -0.380484,0.15094 -0.902469,0.15094 z m 4.084696,-4.3677 h 0.556575 v 4.27651 h -0.556575 z m 4.826797,0 h 0.55343 v 4.27651 h -0.47168 l -2.63194,-3.3426 v 3.3426 h -0.55657 v -4.27651 h 0.46853 l 2.63508,3.35203 h 0.003 z m 1.71689,0 h 0.48111 l 1.6257,2.15712 h 0.003 l 1.62256,-2.15712 h 0.4874 v 4.27651 h -0.55658 v -3.37719 l -1.47791,1.9716 h -0.16037 l -1.46848,-1.97474 v 3.38033 h -0.55657 z m 7.33925,4.36141 q -0.61947,0 -1.1446,-0.29873 -0.52513,-0.29872 -0.83329,-0.80813 -0.30501,-0.51255 -0.30501,-1.11944 0,-0.61318 0.30501,-1.12258 0.30816,-0.51256 0.83015,-0.80814 0.52513,-0.29872 1.14774,-0.29872 0.62261,0 1.14774,0.29872 0.52513,0.29558 0.83329,0.80814 0.30816,0.5094 0.30816,1.12258 0,0.60689 -0.30816,1.11944 -0.30816,0.50941 -0.83329,0.80813 -0.52513,0.29873 -1.14774,0.29873 z m 0,-0.5157 q 0.47481,0 0.87102,-0.22325 0.39621,-0.22641 0.6289,-0.61633 0.23269,-0.39306 0.23269,-0.87102 0,-0.47796 -0.23269,-0.87102 -0.23269,-0.39307 -0.6289,-0.61947 -0.39621,-0.2264 -0.87102,-0.2264 -0.47168,0 -0.86788,0.2264 -0.39621,0.2264 -0.6289,0.61947 -0.22955,0.39306 -0.22955,0.87102 0,0.47796 0.22955,0.87102 0.23269,0.38992 0.6289,0.61633 0.3962,0.22325 0.86788,0.22325 z m 4.95257,-3.84571 q 0.35218,0 0.6289,0.1415 0.27986,0.1415 0.43394,0.39935 0.15722,0.25471 0.15722,0.58488 0,0.19181 -0.0755,0.37105 -0.0723,0.17923 -0.20124,0.31445 -0.12893,0.13521 -0.2893,0.20439 0.22641,0.066 0.41193,0.22326 0.18553,0.15408 0.29244,0.37105 0.11006,0.21382 0.11006,0.45909 0,0.37105 -0.17924,0.64777 -0.17923,0.27357 -0.47482,0.41822 -0.29558,0.1415 -0.63518,0.1415 h -2.00619 v -4.27651 z m -0.0252,1.85525 q 0.18867,0 0.34275,-0.0912 0.15723,-0.0912 0.24842,-0.24841 0.0912,-0.16037 0.0912,-0.34904 0,-0.18867 -0.0912,-0.34275 -0.0912,-0.15723 -0.24842,-0.24842 -0.15408,-0.0912 -0.3396,-0.0912 h -1.24208 v 1.371 z m 0.16037,1.93072 q 0.21068,0 0.38363,-0.0975 0.17609,-0.10062 0.27672,-0.27357 0.10062,-0.17295 0.10062,-0.38677 0,-0.20125 -0.10062,-0.37105 -0.10063,-0.16981 -0.27357,-0.27043 -0.17295,-0.10062 -0.38049,-0.10062 h -1.40559 v 1.49992 z m 2.16656,-3.78597 h 0.55657 v 4.27651 h -0.55657 z m 1.72003,0 h 0.55658 v 3.77339 h 2.07851 v 0.50312 h -2.63509 z m 3.3426,0 h 0.55657 v 4.27651 h -0.55657 z m 4.74189,4.27651 -0.40563,-0.9685 h -2.16027 l -0.40564,0.9685 h -0.59116 l 1.81122,-4.27651 h 0.53457 l 1.80808,4.27651 z m -2.3678,-1.44018 h 1.76406 l -0.86159,-2.05335 -0.0157,-0.0723 h -0.006 l -0.0189,0.0723 z m 5.3991,-2.83633 q 0.41193,0 0.73266,0.1698 0.32389,0.16666 0.50312,0.47168 0.18238,0.30501 0.18238,0.70122 0,0.30816 -0.11634,0.56286 -0.11635,0.25471 -0.32703,0.4308 -0.21068,0.17294 -0.49368,0.24841 l 1.03139,1.69174 h -0.64148 L 132.8,120.22475 q -0.0472,0.003 -0.13836,0.003 h -1.04397 v 1.60684 h -0.55658 v -4.27651 z m -0.0126,2.19486 q 0.24842,0 0.44652,-0.10692 0.20125,-0.11005 0.31445,-0.30187 0.1132,-0.19181 0.1132,-0.44023 0,-0.23898 -0.11635,-0.43079 -0.11634,-0.19496 -0.31759,-0.30502 -0.20125,-0.11006 -0.44966,-0.11006 h -1.23893 v 1.69489 z m 2.30177,-2.19486 h 0.55657 v 4.27651 h -0.55657 z m 3.67591,4.36141 q -0.61947,0 -1.1446,-0.29873 -0.52513,-0.29872 -0.83329,-0.80813 -0.30501,-0.51255 -0.30501,-1.11944 0,-0.61318 0.30501,-1.12258 0.30816,-0.51256 0.83015,-0.80814 0.52513,-0.29872 1.14774,-0.29872 0.62261,0 1.14774,0.29872 0.52513,0.29558 0.83329,0.80814 0.30816,0.5094 0.30816,1.12258 0,0.60689 -0.30816,1.11944 -0.30816,0.50941 -0.83329,0.80813 -0.52513,0.29873 -1.14774,0.29873 z m 0,-0.5157 q 0.47482,0 0.87102,-0.22325 0.39621,-0.22641 0.6289,-0.61633 0.2327,-0.39306 0.2327,-0.87102 0,-0.47796 -0.2327,-0.87102 -0.23269,-0.39307 -0.6289,-0.61947 -0.3962,-0.2264 -0.87102,-0.2264 -0.47167,0 -0.86788,0.2264 -0.39621,0.2264 -0.6289,0.61947 -0.22955,0.39306 -0.22955,0.87102 0,0.47796 0.22955,0.87102 0.23269,0.38992 0.6289,0.61633 0.39621,0.22325 0.86788,0.22325 z m 4.45889,0.52199 q -0.55029,0 -0.93077,-0.18867 -0.37734,-0.19181 -0.56287,-0.49683 -0.18552,-0.30502 -0.18552,-0.64462 h 0.55657 q 0,0.22955 0.13522,0.42451 0.13521,0.19495 0.38991,0.3113 0.25471,0.11635 0.59431,0.11635 0.55029,0 0.83958,-0.20125 0.29244,-0.20125 0.29244,-0.59431 0,-0.34904 -0.28929,-0.52199 -0.2893,-0.17609 -0.827,-0.25784 -0.44023,-0.0723 -0.77984,-0.19496 -0.3396,-0.12578 -0.5723,-0.3742 -0.22954,-0.24841 -0.22954,-0.65091 0,-0.33646 0.16037,-0.60374 0.16351,-0.26728 0.5094,-0.42451 0.3459,-0.16036 0.88046,-0.16036 0.49054,0 0.83644,0.15408 0.34903,0.15408 0.52513,0.42765 0.17923,0.27357 0.17923,0.63518 h -0.55972 q 0,-0.21382 -0.11634,-0.37734 -0.11321,-0.16665 -0.33646,-0.25784 -0.22012,-0.0912 -0.53457,-0.0912 -0.53456,0 -0.76097,0.1981 -0.2264,0.1981 -0.2264,0.50312 0,0.32388 0.29558,0.49368 0.29559,0.16981 0.90247,0.25156 0.66349,0.10692 1.08485,0.38363 0.42136,0.27672 0.42136,0.86788 0,0.39621 -0.20439,0.6855 -0.20125,0.28615 -0.58487,0.43708 -0.38049,0.15094 -0.90247,0.15094 z"
       id="text5"
       style="font-size:6.43992px;font-family:'Codec Pro';-inkscape-font-specification:'Codec Pro, Normal';fill:#ffffff;stroke-width:0.371533"
       aria-label="NEGOCIOS INMOBILIARIOS" />
  </g>
</svg>
